<svg xmlns="http://www.w3.org/2000/svg" viewBox="0 0 800 600" role="img" aria-label="DEADLIFT 3D animated illustration">
<defs>
 <linearGradient id="bg" x1="0" y1="0" x2="1" y2="1"><stop stop-color="#ff9b6b"/><stop offset="1" stop-color="#ffd28e"/></linearGradient>
 <linearGradient id="shirt" x1="0" y1="0" x2="1" y2="1"><stop stop-color="#ff315f"/><stop offset="1" stop-color="#ff8a4c"/></linearGradient>
 <radialGradient id="skin" cx="35%" cy="25%"><stop stop-color="#ffd4b5"/><stop offset="1" stop-color="#e99a73"/></radialGradient>
 <filter id="shadow" x="-30%" y="-30%" width="160%" height="160%"><feDropShadow dx="0" dy="18" stdDeviation="16" flood-opacity=".25"/></filter>
 <filter id="soft" x="-30%" y="-30%" width="160%" height="160%"><feGaussianBlur stdDeviation="12"/></filter>
 <style>.float{animation:float 3.4s ease-in-out infinite} @keyframes float{0%,100%{transform:translateY(0)}50%{transform:translateY(-8px)}}</style>
</defs>
<rect width="800" height="600" rx="38" fill="url(#bg)"/>
<circle cx="115" cy="100" r="82" fill="#fff" opacity=".18"/><circle cx="690" cy="470" r="120" fill="#fff" opacity=".12"/>
<path d="M0 500 Q220 430 420 510 T800 480 V600 H0Z" fill="#0f1720" opacity=".12"/>
<g filter="url(#shadow)"><g class="float"><ellipse cx="400" cy="515" rx="220" ry="28" fill="#000" opacity=".22"/><circle cx="445" cy="190" r="46" fill="url(#skin)"/><path d="M405 235 Q455 215 490 255 L465 350 Q405 365 355 330Z" fill="url(#shirt)"/><path d="M410 260 L330 340" stroke="#f2b18b" stroke-width="28" stroke-linecap="round"/><path d="M485 275 L540 350" stroke="#f2b18b" stroke-width="28" stroke-linecap="round"/><path d="M370 330 L300 445" stroke="#303744" stroke-width="40" stroke-linecap="round"/><path d="M460 340 L530 445" stroke="#303744" stroke-width="40" stroke-linecap="round"/><path d="M245 455 H555" stroke="#252b35" stroke-width="16"/><circle cx="235" cy="455" r="48" fill="#202733"/><circle cx="565" cy="455" r="48" fill="#202733"/><path d="M210 425 H260 M540 425 H590" stroke="#a4adbc" stroke-width="10"/></g></g>
<rect x="32" y="32" width="736" height="536" rx="30" fill="none" stroke="#fff" stroke-opacity=".35" stroke-width="3"/>
<rect x="52" y="488" width="220" height="54" rx="18" fill="#11161d" opacity=".92"/>
<text x="76" y="523" fill="#fff" font-family="Arial, sans-serif" font-size="20" font-weight="900" letter-spacing="1">DEADLIFT</text>
</svg>