<svg xmlns="http://www.w3.org/2000/svg" viewBox="0 0 800 600" role="img" aria-label="WALKING LUNGE 3D animated illustration">
<defs>
 <linearGradient id="bg" x1="0" y1="0" x2="1" y2="1"><stop stop-color="#6ee7c8"/><stop offset="1" stop-color="#4bb3d8"/></linearGradient>
 <linearGradient id="shirt" x1="0" y1="0" x2="1" y2="1"><stop stop-color="#ff315f"/><stop offset="1" stop-color="#ff8a4c"/></linearGradient>
 <radialGradient id="skin" cx="35%" cy="25%"><stop stop-color="#ffd4b5"/><stop offset="1" stop-color="#e99a73"/></radialGradient>
 <filter id="shadow" x="-30%" y="-30%" width="160%" height="160%"><feDropShadow dx="0" dy="18" stdDeviation="16" flood-opacity=".25"/></filter>
 <filter id="soft" x="-30%" y="-30%" width="160%" height="160%"><feGaussianBlur stdDeviation="12"/></filter>
 <style>.float{animation:float 3.4s ease-in-out infinite} @keyframes float{0%,100%{transform:translateY(0)}50%{transform:translateY(-8px)}}</style>
</defs>
<rect width="800" height="600" rx="38" fill="url(#bg)"/>
<circle cx="115" cy="100" r="82" fill="#fff" opacity=".18"/><circle cx="690" cy="470" r="120" fill="#fff" opacity=".12"/>
<path d="M0 500 Q220 430 420 510 T800 480 V600 H0Z" fill="#0f1720" opacity=".12"/>
<g filter="url(#shadow)"><g class="float"><ellipse cx="400" cy="520" rx="220" ry="26" fill="#000" opacity=".2"/><circle cx="400" cy="175" r="44" fill="url(#skin)"/><path d="M360 220 Q400 200 440 220 L455 320 Q400 350 345 320Z" fill="url(#shirt)"/><path d="M355 245 L285 320" stroke="#f2b18b" stroke-width="28" stroke-linecap="round"/><path d="M445 245 L520 300" stroke="#f2b18b" stroke-width="28" stroke-linecap="round"/><rect x="265" y="315" width="26" height="65" rx="10" fill="#202733"/><rect x="510" y="295" width="26" height="65" rx="10" fill="#202733"/><path d="M355 315 L260 435 L185 485" fill="none" stroke="#303744" stroke-width="40" stroke-linecap="round"/><path d="M445 315 L505 415 L590 485" fill="none" stroke="#303744" stroke-width="40" stroke-linecap="round"/></g></g>
<rect x="32" y="32" width="736" height="536" rx="30" fill="none" stroke="#fff" stroke-opacity=".35" stroke-width="3"/>
<rect x="52" y="488" width="220" height="54" rx="18" fill="#11161d" opacity=".92"/>
<text x="76" y="523" fill="#fff" font-family="Arial, sans-serif" font-size="20" font-weight="900" letter-spacing="1">WALKING LUNGE</text>
</svg>