<svg xmlns="http://www.w3.org/2000/svg" viewBox="0 0 760 570">
<defs><linearGradient id="g" x1="0" y1="0" x2="1" y2="1"><stop offset="0" stop-color="#b8f36b"/><stop offset="1" stop-color="#45b36b"/></linearGradient><filter id="s"><feDropShadow dx="0" dy="10" stdDeviation="10" flood-opacity=".18"/></filter></defs>
<rect width="760" height="570" fill="url(#g)"/><circle cx="80" cy="80" r="90" fill="#fff" opacity=".16"/><circle cx="690" cy="500" r="150" fill="#fff" opacity=".12"/>
<rect x="55" y="55" width="650" height="460" rx="34" fill="#ffffff" opacity=".25"/><rect x="55" y="55" width="650" height="460" rx="34" fill="none" stroke="#fff" stroke-width="3" opacity=".65"/>
<g filter="url(#s)" transform="translate(0 10)"><rect x="205" y="105" width="450" height="18" rx="9" fill="#222"/><path d="M205 105 L205 470 M655 105 L655 470" stroke="#555" stroke-width="16"/><circle cx="430" cy="190" r="38" fill="#f2b28b"/><path d="M390 235 Q430 215 470 235 L500 340 L360 340 Z" fill="#4d8cff"/><path d="M400 245 L330 130 M460 245 L530 130" stroke="#f2b28b" stroke-width="25" stroke-linecap="round"/><path d="M330 130 L530 130" stroke="#222" stroke-width="16"/><path d="M380 330 L350 455 M480 330 L510 455" stroke="#333" stroke-width="28" stroke-linecap="round"/></g>
<rect x="75" y="425" width="250" height="58" rx="18" fill="#111" opacity=".78"/><text x="98" y="462" font-family="Arial, sans-serif" font-size="22" font-weight="800" fill="#fff">PULL UP</text>
<circle cx="665" cy="455" r="34" fill="#111" opacity=".82"/><path d="M652 455h26M665 442v26" stroke="#ccff00" stroke-width="5" stroke-linecap="round"/>
</svg>