<svg xmlns="http://www.w3.org/2000/svg" viewBox="0 0 800 600" role="img" aria-label="PULL UP 3D animated illustration">
<defs>
 <linearGradient id="bg" x1="0" y1="0" x2="1" y2="1"><stop stop-color="#7f8cff"/><stop offset="1" stop-color="#c6c9ff"/></linearGradient>
 <linearGradient id="shirt" x1="0" y1="0" x2="1" y2="1"><stop stop-color="#ff315f"/><stop offset="1" stop-color="#ff8a4c"/></linearGradient>
 <radialGradient id="skin" cx="35%" cy="25%"><stop stop-color="#ffd4b5"/><stop offset="1" stop-color="#e99a73"/></radialGradient>
 <filter id="shadow" x="-30%" y="-30%" width="160%" height="160%"><feDropShadow dx="0" dy="18" stdDeviation="16" flood-opacity=".25"/></filter>
 <filter id="soft" x="-30%" y="-30%" width="160%" height="160%"><feGaussianBlur stdDeviation="12"/></filter>
 <style>.float{animation:float 3.4s ease-in-out infinite} @keyframes float{0%,100%{transform:translateY(0)}50%{transform:translateY(-8px)}}</style>
</defs>
<rect width="800" height="600" rx="38" fill="url(#bg)"/>
<circle cx="115" cy="100" r="82" fill="#fff" opacity=".18"/><circle cx="690" cy="470" r="120" fill="#fff" opacity=".12"/>
<path d="M0 500 Q220 430 420 510 T800 480 V600 H0Z" fill="#0f1720" opacity=".12"/>
<g filter="url(#shadow)"><g class="float"><ellipse cx="400" cy="515" rx="170" ry="24" fill="#000" opacity=".2"/><rect x="120" y="120" width="560" height="24" rx="12" fill="#252b35"/><rect x="160" y="90" width="20" height="400" rx="10" fill="#4a5261"/><rect x="620" y="90" width="20" height="400" rx="10" fill="#4a5261"/><circle cx="400" cy="230" r="44" fill="url(#skin)"/><path d="M360 275 Q400 250 440 275 L455 370 Q400 400 345 370Z" fill="url(#shirt)"/><path d="M365 285 L300 165" stroke="#f2b18b" stroke-width="28" stroke-linecap="round"/><path d="M435 285 L500 165" stroke="#f2b18b" stroke-width="28" stroke-linecap="round"/><path d="M350 360 L320 470" stroke="#303744" stroke-width="36" stroke-linecap="round"/><path d="M450 360 L480 470" stroke="#303744" stroke-width="36" stroke-linecap="round"/><path d="M280 165 H520" stroke="#151a22" stroke-width="22" stroke-linecap="round"/></g></g>
<rect x="32" y="32" width="736" height="536" rx="30" fill="none" stroke="#fff" stroke-opacity=".35" stroke-width="3"/>
<rect x="52" y="488" width="220" height="54" rx="18" fill="#11161d" opacity=".92"/>
<text x="76" y="523" fill="#fff" font-family="Arial, sans-serif" font-size="20" font-weight="900" letter-spacing="1">PULL UP</text>
</svg>