<svg xmlns="http://www.w3.org/2000/svg" viewBox="0 0 760 570">
<defs><linearGradient id="g" x1="0" y1="0" x2="1" y2="1"><stop offset="0" stop-color="#ffc0a8"/><stop offset="1" stop-color="#ff6b35"/></linearGradient><filter id="s"><feDropShadow dx="0" dy="10" stdDeviation="10" flood-opacity=".18"/></filter></defs>
<rect width="760" height="570" fill="url(#g)"/><circle cx="80" cy="80" r="90" fill="#fff" opacity=".16"/><circle cx="690" cy="500" r="150" fill="#fff" opacity=".12"/>
<rect x="55" y="55" width="650" height="460" rx="34" fill="#ffffff" opacity=".25"/><rect x="55" y="55" width="650" height="460" rx="34" fill="none" stroke="#fff" stroke-width="3" opacity=".65"/>
<g filter="url(#s)" transform="translate(0 10)"><rect x="500" y="80" width="90" height="18" rx="9" fill="#222"/><path d="M545 98 L545 180" stroke="#222" stroke-width="12"/><circle cx="390" cy="175" r="38" fill="#f2b28b"/><path d="M355 220 Q400 205 445 225 L465 350 L345 350 Z" fill="#ff6b35"/><path d="M375 240 L455 300" stroke="#f2b28b" stroke-width="24" stroke-linecap="round"/><path d="M455 300 L545 180" stroke="#222" stroke-width="14"/><path d="M380 345 L350 470 M450 345 L485 470" stroke="#333" stroke-width="30" stroke-linecap="round"/></g>
<rect x="75" y="425" width="250" height="58" rx="18" fill="#111" opacity=".78"/><text x="98" y="462" font-family="Arial, sans-serif" font-size="22" font-weight="800" fill="#fff">TRICEPS PUSHDOWN</text>
<circle cx="665" cy="455" r="34" fill="#111" opacity=".82"/><path d="M652 455h26M665 442v26" stroke="#ccff00" stroke-width="5" stroke-linecap="round"/>
</svg>