<svg xmlns="http://www.w3.org/2000/svg" viewBox="0 0 760 570">
<defs><linearGradient id="g" x1="0" y1="0" x2="1" y2="1"><stop offset="0" stop-color="#ffcf8a"/><stop offset="1" stop-color="#f28c28"/></linearGradient><filter id="s"><feDropShadow dx="0" dy="10" stdDeviation="10" flood-opacity=".18"/></filter></defs>
<rect width="760" height="570" fill="url(#g)"/><circle cx="80" cy="80" r="90" fill="#fff" opacity=".16"/><circle cx="690" cy="500" r="150" fill="#fff" opacity=".12"/>
<rect x="55" y="55" width="650" height="460" rx="34" fill="#ffffff" opacity=".25"/><rect x="55" y="55" width="650" height="460" rx="34" fill="none" stroke="#fff" stroke-width="3" opacity=".65"/>
<g filter="url(#s)" transform="translate(0 10)"><circle cx="395" cy="175" r="38" fill="#f2b28b"/><path d="M360 220 Q410 205 460 235 L500 325 L350 325 Z" fill="#ff8b2c"/><path d="M375 245 L300 345 M455 245 L520 345" stroke="#f2b28b" stroke-width="25" stroke-linecap="round"/><path d="M260 350 L580 350" stroke="#222" stroke-width="14"/><circle cx="255" cy="350" r="32" fill="#222"/><circle cx="585" cy="350" r="32" fill="#222"/><path d="M375 325 L345 465 M455 325 L485 465" stroke="#333" stroke-width="28" stroke-linecap="round"/></g>
<rect x="75" y="425" width="250" height="58" rx="18" fill="#111" opacity=".78"/><text x="98" y="462" font-family="Arial, sans-serif" font-size="22" font-weight="800" fill="#fff">BARBELL ROW</text>
<circle cx="665" cy="455" r="34" fill="#111" opacity=".82"/><path d="M652 455h26M665 442v26" stroke="#ccff00" stroke-width="5" stroke-linecap="round"/>
</svg>